<svg id="Railroad" xmlns="http://www.w3.org/2000/svg" width="76.756" height="65.003" viewBox="0 0 76.756 65.003">
  <path id="Path_1" data-name="Path 1" d="M64.654,24.711V10.8a1.127,1.127,0,0,0-1.2-1.2H55.3v16.31h8.155A1.2,1.2,0,0,0,64.654,24.711Z" transform="translate(9.821 -5.163)" fill="#225e8e"/>
  <path id="Path_2" data-name="Path 2" d="M43.026,29.628a3.742,3.742,0,0,1,3.718-3.718h1.2V9.6H41.827A15.123,15.123,0,0,0,26.716,24.711V49.3H20.6v16.91H51.661V49.3H43.026Z" transform="translate(2.906 -5.163)" fill="#225e8e"/>
  <path id="Path_3" data-name="Path 3" d="M65.2,42.7H58V59.61h7.2a1.127,1.127,0,0,0,1.2-1.2V43.9a1.127,1.127,0,0,0-1.2-1.2Z" transform="translate(10.359 1.433)" fill="#225e8e"/>
  <path id="Path_4" data-name="Path 4" d="M1,43.9V58.411a1.2,1.2,0,0,0,1.2,1.2h7.2V42.7H2.2A1.2,1.2,0,0,0,1,43.9Z" transform="translate(-1 1.433)" fill="#225e8e"/>
  <path id="Path_5" data-name="Path 5" d="M56.3,39.2H49.7a1.127,1.127,0,0,0-1.2,1.2V63.066a1.127,1.127,0,0,0,1.2,1.2h6.6a1.2,1.2,0,0,0,1.2-1.2V40.4A1.2,1.2,0,0,0,56.3,39.2Z" transform="translate(8.465 0.736)" fill="#225e8e"/>
  <path id="Path_6" data-name="Path 6" d="M46.7,30.965h6.956a1.2,1.2,0,0,0,1.2-1.2V7.1a1.2,1.2,0,0,0-1.2-1.2H46.7a1.2,1.2,0,0,0-1.2,1.2V29.766A1.2,1.2,0,0,0,46.7,30.965Z" transform="translate(7.868 -5.9)" fill="#225e8e"/>
  <path id="Path_7" data-name="Path 7" d="M19.115,39.2H11.2A1.127,1.127,0,0,0,10,40.4V63.066a1.127,1.127,0,0,0,1.2,1.2h7.915a1.2,1.2,0,0,0,1.2-1.2V40.4A1.2,1.2,0,0,0,19.115,39.2Z" transform="translate(0.793 0.736)" fill="#225e8e"/>
</svg>
