<?xml version="1.0" encoding="utf-8"?>
<!-- Generator: Adobe Illustrator 25.4.1, SVG Export Plug-In . SVG Version: 6.00 Build 0)  -->
<svg version="1.1" id="Layer_1" xmlns="http://www.w3.org/2000/svg" xmlns:xlink="http://www.w3.org/1999/xlink" x="0px" y="0px"
	 viewBox="0 0 98 17" style="enable-background:new 0 0 98 17;" xml:space="preserve">
<style type="text/css">
	.st0{enable-background:new    ;}
	.st1{fill:#030504;}
</style>
<g class="st0">
	<path class="st1" d="M8,10.1l2.1,0.7c-0.3,1.2-0.9,2-1.6,2.6c-0.8,0.6-1.7,0.9-2.9,0.9c-1.4,0-2.6-0.5-3.5-1.5
		c-0.9-1-1.4-2.3-1.4-4c0-1.8,0.5-3.2,1.4-4.2c0.9-1,2.1-1.5,3.6-1.5c1.3,0,2.4,0.4,3.2,1.2c0.5,0.5,0.9,1.1,1.1,2L7.9,6.7
		c-0.1-0.6-0.4-1-0.8-1.3C6.7,5.1,6.2,4.9,5.6,4.9c-0.8,0-1.4,0.3-1.9,0.9C3.2,6.4,2.9,7.3,2.9,8.6c0,1.4,0.2,2.3,0.7,2.9
		s1.1,0.9,1.9,0.9c0.6,0,1.1-0.2,1.5-0.5C7.5,11.4,7.8,10.8,8,10.1z"/>
	<path class="st1" d="M11.9,8.7c0-1.1,0.2-2,0.5-2.8c0.2-0.5,0.6-1,1-1.5c0.4-0.4,0.9-0.8,1.4-1c0.7-0.3,1.4-0.4,2.3-0.4
		c1.6,0,2.8,0.5,3.8,1.5c0.9,1,1.4,2.3,1.4,4.1c0,1.7-0.5,3.1-1.4,4.1c-0.9,1-2.2,1.5-3.8,1.5c-1.6,0-2.9-0.5-3.8-1.5
		C12.3,11.7,11.9,10.4,11.9,8.7z M14.1,8.6c0,1.2,0.3,2.1,0.8,2.8c0.6,0.6,1.3,0.9,2.1,0.9s1.6-0.3,2.1-0.9c0.6-0.6,0.8-1.6,0.8-2.8
		c0-1.2-0.3-2.1-0.8-2.8c-0.5-0.6-1.3-0.9-2.1-0.9s-1.6,0.3-2.2,0.9C14.4,6.5,14.1,7.4,14.1,8.6z"/>
	<path class="st1" d="M24.3,3.3h4c0.9,0,1.6,0.1,2,0.2C31,3.7,31.5,4,32,4.5s0.8,1.1,1,1.7c0.2,0.7,0.4,1.5,0.4,2.5
		c0,0.9-0.1,1.6-0.3,2.3c-0.3,0.8-0.7,1.4-1.1,1.9c-0.4,0.4-0.9,0.7-1.5,0.9c-0.5,0.2-1.1,0.2-1.9,0.2h-4.1V3.3z M26.5,5.1v7.1h1.6
		c0.6,0,1,0,1.3-0.1c0.4-0.1,0.6-0.2,0.9-0.4s0.4-0.6,0.6-1c0.1-0.5,0.2-1.1,0.2-2S31,7.2,30.9,6.7c-0.1-0.4-0.4-0.8-0.6-1
		c-0.3-0.2-0.6-0.4-1-0.5c-0.3-0.1-0.9-0.1-1.8-0.1H26.5z"/>
	<path class="st1" d="M35.5,14V3.3h8v1.8h-5.8v2.4h5.4v1.8h-5.4v2.9h6V14H35.5z"/>
	<path class="st1" d="M60,12.7l-1.2,1.6C58.1,14,57.5,13.6,57,13c-0.4,0.4-0.9,0.7-1.4,0.9s-1.1,0.3-1.7,0.3c-1.3,0-2.3-0.4-3-1.1
		c-0.5-0.6-0.8-1.2-0.8-2c0-0.7,0.2-1.3,0.6-1.9c0.4-0.5,1-1,1.8-1.4c-0.4-0.4-0.6-0.8-0.8-1.2c-0.2-0.4-0.3-0.8-0.3-1.1
		c0-0.6,0.3-1.2,0.8-1.7c0.5-0.5,1.3-0.7,2.2-0.7c0.9,0,1.7,0.2,2.2,0.7c0.5,0.5,0.8,1.1,0.8,1.7c0,0.4-0.1,0.8-0.4,1.2
		c-0.3,0.4-0.8,0.8-1.6,1.3l1.5,2c0.2-0.3,0.3-0.7,0.5-1.2l1.9,0.4c-0.2,0.7-0.3,1.1-0.5,1.4c-0.1,0.3-0.3,0.6-0.4,0.8
		c0.2,0.2,0.5,0.5,0.9,0.7C59.5,12.4,59.8,12.6,60,12.7z M53.6,9.1c-0.5,0.2-0.8,0.5-1.1,0.9c-0.2,0.3-0.4,0.7-0.4,1
		c0,0.4,0.1,0.8,0.4,1.1c0.3,0.3,0.7,0.4,1.2,0.4c0.3,0,0.6-0.1,0.9-0.2s0.6-0.3,1-0.6L53.6,9.1z M54.4,6.9l0.6-0.4
		c0.4-0.3,0.6-0.6,0.6-0.9c0-0.3-0.1-0.5-0.3-0.7c-0.2-0.2-0.5-0.3-0.8-0.3c-0.3,0-0.6,0.1-0.8,0.2c-0.2,0.2-0.3,0.4-0.3,0.6
		c0,0.3,0.2,0.6,0.5,0.9L54.4,6.9z"/>
	<path class="st1" d="M66.2,14V3.3h2.2v4.2h4.2V3.3h2.2V14h-2.2V9.3h-4.2V14H66.2z"/>
	<path class="st1" d="M77.4,3.3h2.2v5.8c0,0.9,0,1.5,0.1,1.8c0.1,0.4,0.3,0.8,0.7,1.1c0.3,0.3,0.8,0.4,1.4,0.4
		c0.6,0,1.1-0.1,1.4-0.4c0.3-0.3,0.5-0.6,0.6-0.9s0.1-1,0.1-1.8V3.3H86v5.6c0,1.3-0.1,2.2-0.2,2.7s-0.3,1-0.6,1.3
		c-0.3,0.4-0.7,0.7-1.3,0.9c-0.5,0.2-1.2,0.3-2.1,0.3c-1,0-1.8-0.1-2.3-0.4c-0.5-0.2-0.9-0.5-1.3-0.9c-0.3-0.4-0.5-0.8-0.6-1.2
		c-0.1-0.6-0.2-1.5-0.2-2.7V3.3z"/>
	<path class="st1" d="M88.6,14V3.3h8v1.8h-5.8v2.4h5.4v1.8h-5.4v2.9h6V14H88.6z"/>
</g>
</svg>
